<svg width="180" height="70" viewBox="0 0 180 70" xmlns="http://www.w3.org/2000/svg">
  <!-- Google Logo -->
  <g>
    <!-- G -->
    <path d="M 15 35 C 15 22 25 13 38 13 C 43 13 47 14 50 16 L 45 22 C 43 21 41 20 38 20 C 30 20 25 25 25 35 C 25 45 30 50 38 50 C 41 50 43 49 45 48 L 50 54 C 47 56 43 57 38 57 C 25 57 15 48 15 35 Z" fill="#4285F4"/>
    <!-- o -->
    <circle cx="65" cy="35" r="7" fill="#EA4335"/>
    <!-- o -->
    <circle cx="85" cy="35" r="7" fill="#FBBC05"/>
    <!-- g -->
    <path d="M 105 28 C 99 28 95 32 95 38 L 95 45 C 95 51 99 55 105 55 C 111 55 115 51 115 45 L 115 38 C 115 32 111 28 105 28 Z M 105 50 C 101 50 99 48 99 45 L 99 38 C 99 34 101 32 105 32 C 109 32 111 34 111 38 L 111 45 C 111 48 109 50 105 50 Z" fill="#4285F4"/>
    <!-- l -->
    <rect x="120" y="28" width="6" height="27" fill="#34A853"/>
    <!-- e -->
    <path d="M 140 35 C 140 29 144 25 150 25 C 156 25 160 29 160 35 C 160 41 156 45 150 45 C 152 45 153 44 154 43 L 154 40 L 145 40 L 145 38 L 159 38 L 159 35 Z M 150 42 C 153 42 155 40 155 35 C 155 30 153 28 150 28 C 147 28 145 30 145 35 C 145 40 147 42 150 42 Z" fill="#EA4335"/>
  </g>
  
  <!-- Reviews Text -->
  <text x="15" y="62" font-family="Arial, sans-serif" font-size="12" font-weight="500" fill="#333333">Reviews</text>
  
  <!-- Stars -->
  <text x="75" y="62" font-size="14" fill="#FFD700">★★★★★</text>
</svg>
